<svg width="60" height="30" viewBox="0 0 60 30" fill="none" xmlns="http://www.w3.org/2000/svg">
<g id="darkmode-button">
<rect id="Rectangle 1" x="0.5" y="0.5" width="59" height="29" rx="14.5" fill="white" stroke="#E79B29"/>
<g id="Group 1">
<path id="Star 1" d="M15.5869 8.98772L15.9986 10.2608L17.3309 10.2608L16.2531 11.0476L16.6648 12.3206L15.5869 11.5338L14.5091 12.3206L14.9208 11.0476L13.8429 10.2608L15.1752 10.2608L15.5869 8.98772Z" fill="#E79B29"/>
<path id="Ellipse 2" d="M9.06748 6.75781C10.9807 5.96835 13.1338 5.87808 15.16 6.50241L11.7346 7.0042C10.0823 7.67593 9.52099 8.30224 8.77843 9.13076C7.88735 10.125 7.31617 11.1086 6.98052 12.3086C6.5166 13.3858 6.97377 15.2998 7.27793 16.4785C7.54997 17.6653 8.44829 18.5262 9.40494 19.2996C10.3616 20.073 10.473 20.2659 11.5443 20.9351C12.8468 21.2132 12.1841 20.9138 14.3207 21.6465C15.7488 21.4382 16.0687 21.4275 17.2797 20.4226C18.3193 19.2627 20.6727 16.2907 20.2612 15.0183L19.8583 10.7529C20.9043 12.6122 22.0893 14.9488 21.7437 17.0055C21.398 19.0623 20.3453 20.9081 18.7649 22.2285C17.1844 23.5489 15.1741 24.2621 13.0764 24.2468C10.9787 24.2314 8.9234 23.4884 7.26072 22.1442C5.59805 20.8001 4.43086 18.938 3.95803 16.8753C3.4852 14.8126 3.73599 12.6768 4.66767 10.832C5.59935 8.98711 7.15426 7.54728 9.06748 6.75781Z" fill="#E79B29"/>
</g>
</g>
</svg>
